<?xml version="1.0" encoding="UTF-8"?>
<svg id="Layer_1" data-name="Layer 1" xmlns="http://www.w3.org/2000/svg" viewBox="0 0 370.82 89.48">
  <defs>
    <style>
      .cls-1 { fill: #147bb9; }
      .cls-2 { fill: #aeadad; }
    </style>
  </defs>
  <g id="Layer_1-2" data-name="Layer 1">
    <g>
      <path id="Path_871" class="cls-2" d="M258.02,28.78c-1.03-.03-1.98-.55-2.55-1.4-.94-1.33-.63-3.17.71-4.11.05-.03.1-.07.15-.1,8.62-5.33,18.54-8.2,28.67-8.3,9.48.05,18.76,2.72,26.82,7.71.73.41,1.25,1.13,1.4,1.95.15.82,0,1.67-.4,2.4-.52,1.01-1.57,1.63-2.7,1.6-.54,0-1.08-.14-1.55-.4-7.1-4.38-15.27-6.72-23.62-6.76-8.87.02-17.57,2.5-25.12,7.15-.59.15-1.19.24-1.8.25Z"/>
      <path id="Path_872" class="cls-2" d="M240.6,20.77c-.93.02-1.81-.39-2.4-1.1-1.06-1.32-.88-3.25.4-4.35,13.7-9.81,30.09-15.16,46.94-15.31,15.61.16,30.83,4.84,43.84,13.46.69.46,1.19,1.15,1.4,1.95.15.82,0,1.67-.4,2.4-.59.88-1.59,1.41-2.65,1.4-.59-.02-1.17-.15-1.7-.4-25.43-17.23-58.95-16.61-83.72,1.55-.54.23-1.12.37-1.7.4Z"/>
      <g id="Group_340">
        <path id="Path_873" class="cls-1" d="M0,27.27h42.99v4.2H4.5v25.02h34.53v4.2H4.5v27.68H0V27.27Z"/>
        <path id="Path_874" class="cls-1" d="M49.84,46.09h4.2v42.29h-4.2v-42.29Z"/>
        <path id="Path_875" class="cls-1" d="M62.65,66.16v-.15c0-12.91,9.11-23.17,21.07-23.17s20.37,10.11,20.37,23.32c.03.57-.02,1.14-.15,1.7h-36.78c.85,11.11,8.71,17.56,17.41,17.56,5.87-.02,11.46-2.57,15.31-7l2.95,2.65c-4.53,5.47-11.31,8.57-18.41,8.41-11.66-.15-21.77-9.56-21.77-23.32ZM99.43,63.91c-.55-9.01-5.76-17.27-15.86-17.27-8.86,0-15.61,7.46-16.41,17.27h32.28Z"/>
        <path id="Path_876" class="cls-1" d="M110.54,24.72h4.2v63.6h-4.2V24.72Z"/>
        <path id="Path_877" class="cls-1" d="M122.05,66.16v-.15c0-14.46,10.96-23.32,21.62-23.32,8.86,0,14.61,5.05,18.26,10.66v-28.62h4.2v63.6h-4.2v-9.96c-3.8,5.9-9.56,10.96-18.26,10.96-10.66,0-21.62-8.71-21.62-23.17ZM162.24,66.16v-.15c.29-10.27-7.8-18.83-18.07-19.12-.02,0-.03,0-.05,0-9.71,0-17.41,7-17.41,18.97v.15c0,11.66,8.16,19.12,17.41,19.12,10.18-.16,18.3-8.55,18.13-18.73,0-.08,0-.16,0-.23h0Z"/>
        <path id="Path_878" class="cls-1" d="M180.05,51.24h-5.9v-8.81h5.9v-3.4c0-5.05,1.25-8.86,3.8-11.36,2.82-2.59,6.59-3.91,10.41-3.65,2.9-.03,5.79.4,8.56,1.25v8.86c-1.97-.71-4.06-1.08-6.16-1.1-4.05,0-6.05,2.25-6.05,7v2.5h12.21v8.71h-12.06v36.93h-10.56v-36.93h-.15Z"/>
        <path id="Path_879" class="cls-1" d="M201.82,65.61v-.15c-.03-13.24,10.67-23.99,23.9-24.03.22,0,.45,0,.67,0,13.13-.36,24.06,10,24.41,23.12,0,.25,0,.5,0,.75v.15c-.28,13.53-11.48,24.27-25.01,23.98-13.07-.27-23.62-10.76-23.98-23.83ZM240.31,65.61v-.15c.32-7.82-5.75-14.43-13.58-14.75-.16,0-.32-.01-.49-.01-8.41,0-13.91,6.6-13.91,14.61v.15c-.27,7.87,5.89,14.48,13.76,14.76.1,0,.2,0,.3,0,7.68,0,13.92-6.21,13.93-13.9,0-.24,0-.48-.02-.71Z"/>
        <path id="Path_880" class="cls-1" d="M256.47,42.3h10.56v10.41c2.8-6.91,8.16-11.51,16.31-11.26v11.11h-.61c-9.26,0-15.71,6.05-15.71,18.26v17.56h-10.55v-46.09Z"/>
        <path id="Path_881" class="cls-1" d="M283.04,65.61v-.15c.24-13.51,11.4-24.27,24.91-24.02,6.67.12,13,2.96,17.53,7.86l-6.6,7c-3.25-3.35-6.61-5.76-11.81-5.76-7.71,0-13.36,6.6-13.36,14.61v.15c0,8.16,5.61,14.76,13.76,14.76,4.59-.12,8.93-2.15,11.96-5.61l6.31,6.31c-4.58,5.65-11.55,8.82-18.82,8.56-12.95.23-23.64-10.09-23.87-23.04,0-.23,0-.45,0-.68Z"/>
        <path id="Path_882" class="cls-1" d="M326.28,65.46v-.15c0-13.21,9.26-24.02,22.47-24.02,14.61,0,22.07,11.51,22.07,24.72,0,1-.15,1.95-.15,2.95h-33.83c.62,6.77,6.41,11.89,13.21,11.66,4.75.02,9.29-1.95,12.51-5.44l6.2,5.46c-4.6,5.62-11.55,8.79-18.81,8.55-13.41.14-23.67-9.56-23.67-23.73ZM360.31,62.1c-.7-6.76-4.65-12.06-11.66-12.06-6.46,0-10.96,4.91-11.96,12.06h23.62Z"/>
      </g>
      <circle id="Ellipse_43" class="cls-1" cx="51.99" cy="36.23" r="3.1"/>
    </g>
  </g>
</svg>
